<svg xmlns="http://www.w3.org/2000/svg" viewBox="0 0 264.22 274.38"><g fill="#88a80a"><path d="M115.42,136.05c9.25-6.36,18.8-12.39,25.97-20.8,10.32-12.08,16.46-27.23,16.46-43.71C157.85,32.03,122.51,0,78.93,0S0,32.03,0,71.53c0,9.75,2.28,19.49,6.35,28.34,2.72,5.91,9,18.32,15.79,21.52.84.4,1.87-.19,1.94-1.12.27-3.36-.9-7.72-.87-11,.05-4.95.71-9.9,2.2-14.63,2.84-9.01,8.92-17.22,17.37-21.43,6.28-3.13,13.62-3.93,20.53-2.65,10.1,1.88,19.27,8.26,24.54,17.08,5.27,8.82,6.54,19.92,3.41,29.7-2.74,8.57-8.52,15.75-13.71,23.1-12.99,18.39-18.69,37.8-13.53,60.1,1.81,7.82,5.19,15.28,9.65,21.93,4.62,6.89,11.55,13.11,16.62,17.35-8.34-11.96-14.36-26.34-14.36-42.25,0-21.06,11.21-38.36,26.69-51.87,4-3.49,8.36-6.61,12.78-9.65Z"/><path d="M263.77,117.61c-.79-4.84-2.61-9.52-5.34-13.6-4.35-6.5-11-11.42-18.48-13.7-4.41-1.34-9.05-1.78-13.43-3.21-2.89-.94-10.74-3-10.26-6.98.13-1.11.2-2.24.2-3.4,0-11.19-6.45-20.87-15.82-25.53-1.43-.71-3.18-.29-4.13.98-3.55,4.76-5.65,10.66-5.65,17.04s2.3,12.81,6.16,17.66c.47.59.75,1.32.75,2.07.03,6.85-.65,14.09.68,20.85.7,3.59,2.09,7.01,3.72,10.27,4.3,8.57,10.51,13.87,19.45,17.21.02.02.04.02.06.02,5.23,1.97,10.9,3.05,16.82,3.05,8.76,0,16.99-2.35,24.05-6.47,1.22-.71,1.45-6.38,1.56-7.7.2-2.54.16-5.09-.18-7.62-.04-.32-.09-.65-.14-.97Z"/><circle cx="241.16" cy="159.26" r="13.66"/><path d="M229.3,246.7c-4.99,0-9.69.83-13.88,2.29-1.8.63-3.3-1.39-2.18-2.93,9.04-12.54,13.92-28.27,12.6-45.18-2.58-33.08-29.31-59.81-62.39-62.38-41.18-3.2-75.39,30.27-73.42,71.2,1.71,35.62,33.56,64.69,69.22,64.69,19.3,0,39.65,0,39.65,0h56.82c2.64,0,4.82-2.07,4.97-4.71.01-.26.02-.53.02-.79,0-12.25-14.06-22.18-31.41-22.18Z"/></g></svg>
